<svg xmlns="http://www.w3.org/2000/svg" version="1.1" xmlns:xlink="http://www.w3.org/1999/xlink" xmlns:svgjs="http://svgjs.dev/svgjs" width="100%" height="100%" viewBox="0 0 1000 600"><rect width="1000" height="600" x="0" y="0" fill="purple"/><g><circle r="166.66666666666666" cx="292.28518168131507" cy="304.90712815293296" fill="black" transform="matrix(1.0774167985306868,0,0,1.0774167985306868,0.8007600586630979,-28.512070190358685)"/><path d="M240.04556055954114 256.00450605993495L240.04556055954114 256.00450605993495L240.04556055954114 365.90074904000187L258.57109825144244 373.4426480680457L257.2841869093555 378.17129904594617L204.49089371304888 378.17129904594617L203.17405420021583 373.4426480680457L215.02560981571327 368.4745717241755Q218.91627201272 366.9781631868653 220.32289603779165 365.2423292835853Q221.72952006286334 363.5064953803054 221.72952006286334 360.2742529397152L221.72952006286334 360.2742529397152L221.72952006286334 312.6585332825021L152.11659490718912 312.6585332825021L152.11659490718912 365.90074904000187L170.64213259909036 373.4426480680457L169.35522125700354 378.17129904594617L116.56192806069689 378.17129904594617L115.27501671861003 373.4426480680457L127.12657233410745 368.4745717241755Q130.98730636036797 366.9781631868653 132.39393038543963 365.2423292835853Q133.8005544105113 363.5064953803054 133.8005544105113 360.2742529397152L133.8005544105113 360.2742529397152L133.8005544105113 250.3780099596483L115.27501671861003 242.8361109316045L116.56192806069689 238.10745995370402L169.35522125700354 238.10745995370402L170.64213259909036 242.8361109316045L158.79057698359296 247.80418727547462Q154.92984295733243 249.3005958127849 153.5232189322608 251.03642971606484Q152.11659490718912 252.77226361934476 152.11659490718912 256.00450605993495L152.11659490718912 256.00450605993495L152.11659490718912 300.38798327655786L221.72952006286334 300.38798327655786L221.72952006286334 250.3780099596483L203.17405420021583 242.8361109316045L204.49089371304888 238.10745995370402L257.2841869093555 238.10745995370402L258.57109825144244 242.8361109316045L246.71954263594498 247.80418727547462Q242.82888043893826 249.3005958127849 241.42225641386662 251.03642971606484Q240.04556055954114 252.77226361934476 240.04556055954114 256.00450605993495ZM269.3452397200764 329.68766243709314Q269.3452397200764 305.9845512060983 282.90270106810755 292.72637156552923Q296.4900905868849 279.46819192496014 314.5966338883393 279.46819192496014Q332.7031771897936 279.46819192496014 341.95098195037116 290.15254888135553Q351.22871488169494 300.80697766700473 351.22871488169494 319.332515358906L351.22871488169494 319.332515358906L351.22871488169494 326.45541999650294L347.9964724411047 329.68766243709314L287.6612802167542 329.68766243709314Q288.0802746072011 346.267869030491 296.90908497733176 356.2040217182312Q305.7678235182086 366.1102462352253 319.654494744448 366.1102462352253Q333.5411659706874 366.1102462352253 346.2606385378248 360.5136783056849L346.2606385378248 360.5136783056849L349.28338378319154 366.1102462352253Q346.70956109901783 368.68406891939895 343.0283960972346 371.37760428655747Q339.3771592661975 374.071139653716 331.29655316472196 376.97417221609794Q323.2159470632465 379.9071329492261 314.38713669311585 379.9071329492261L314.38713669311585 379.9071329492261Q294.33526229315805 379.9071329492261 281.8252869212441 366.648953308657Q269.3452397200764 353.39077366808795 269.3452397200764 329.68766243709314ZM312.232308399389 293.2650786389609L312.232308399389 293.2650786389609Q302.08665851642536 293.2650786389609 295.6221736352449 296.4973210795511L295.6221736352449 296.4973210795511Q293.04835095107126 299.7295635201413 290.5643127791362 306.85246815773826Q288.0802746072011 313.94544462458896 287.87077741197766 320.4099295057694L287.87077741197766 320.4099295057694L333.9900885318805 319.12301816368256Q333.9900885318805 293.2650786389609 312.232308399389 293.2650786389609ZM378.5830629437269 361.1421698913552L378.5830629437269 361.1421698913552L378.5830629437269 247.1457675190581L363.4992648876392 244.78144203010785L362.21235354555233 240.0527910522074L391.72152990131104 229.9071411692437L396.0311864887647 231.6429750725236L396.0311864887647 366.52924062567223L413.06031564335564 373.4426480680457L411.7734043012687 378.17129904594617L363.4992648876392 378.17129904594617L362.21235354555233 373.4426480680457L371.9090808673229 369.3424886758155Q375.79974306432973 367.816151967759 377.1764389186551 366.1102462352253Q378.5830629437269 364.3744123319454 378.5830629437269 361.1421698913552ZM434.8180957758471 361.1421698913552L434.8180957758471 361.1421698913552L434.8180957758471 247.1457675190581L419.7342977197596 244.78144203010785L418.4473863776727 240.0527910522074L447.98649090417763 229.9071411692437L452.2961474916312 231.6429750725236L452.2961474916312 366.52924062567223L469.2953484754759 373.4426480680457L468.0084371333891 378.17129904594617L419.7342977197596 378.17129904594617L418.4473863776727 373.4426480680457L428.14411369944327 369.3424886758155Q432.03477589645007 367.816151967759 433.44139992152174 366.1102462352253Q434.8180957758471 364.3744123319454 434.8180957758471 361.1421698913552Z " fill="Red" transform="matrix(1.0774167985306868,0,0,1.0774167985306868,0.8007600586630979,-28.512070190358685)"/><path d="M610.7484775306646 379.9071250730254L610.7484775306646 379.9071250730254Q580.7860106179515 379.9071250730254 561.5512327982036 360.2970345153312Q542.2851789169601 340.71822001913245 542.2851789169601 305.1260620372249Q542.2851789169601 269.5651801168129 563.240140118962 249.73615712864998Q584.1638252594682 229.90713414048705 613.4382188192798 229.90713414048705L613.4382188192798 229.90713414048705Q634.3931800212815 229.90713414048705 645.8714945901393 239.16484834316248L645.8714945901393 239.16484834316248Q653.9719945174802 245.45133670376305 656.9119442980596 250.42423048155152L656.9119442980596 250.42423048155152L642.2747475181538 270.69111833065176L636.863988879428 269.09603919438L635.7380506655891 247.92214556190953Q625.3856743105703 244.3253984899241 609.4974350708436 244.3253984899241Q593.6404718926124 244.3253984899241 582.6000221846921 249.2982922677126L582.6000221846921 249.2982922677126Q562.3331343355917 268.1890334110098 562.3331343355917 302.8741856095471L562.3331343355917 302.8741856095471Q562.3331343355917 333.27451738319746 578.0962693293363 349.6006214838616Q593.859404323081 365.9267255845257 617.9419716746354 365.9267255845257L617.9419716746354 365.9267255845257Q636.2071915880219 365.9267255845257 655.567073653752 356.2624225824084L655.567073653752 356.2624225824084L658.9448882952688 362.76784337347766Q653.0962647956055 368.64774293463637 640.3669077669269 374.2774340038309Q627.6375507382481 379.9071250730254 610.7484775306646 379.9071250730254ZM703.2943434959234 247.48428070097216L703.2943434959234 247.48428070097216Q703.2943434959234 248.82915134527974 703.9824168488249 250.42423048155152L703.9824168488249 250.42423048155152L740.4503045526071 353.7603376627664L778.2943389621926 244.54433092039278L758.9344568964625 236.6627634235205L760.27932754077 231.72114570722752L810.0395413801505 231.72114570722752L811.384412024458 236.6627634235205L798.9990916722302 241.85458963177763Q795.1834121697761 243.4183927065539 794.1513021404237 244.794539412357Q793.1504681725669 246.1394100566646 791.5866650977907 250.42423048155152L791.5866650977907 250.42423048155152L746.5491365442347 375.8412370786071L732.7876694862034 379.9071250730254L728.2839166308479 378.09311350628496L679.868573435775 243.88753362898677L662.3227029367854 236.6627634235205L663.6675735810929 231.72114570722752L718.8385460591994 231.72114570722752L720.183416703507 236.6627634235205L707.7980963512789 241.85458963177763Q703.2943434959234 243.6686011985181 703.2943434959234 247.48428070097216Z " fill="red" transform="matrix(1.0774167985306868,0,0,1.0774167985306868,0.8007600586630979,-28.512070190358685)"/></g></svg>